<?xml version="1.0" encoding="utf-8"?>
<svg width="1440px" height="161px" viewbox="0 0 1440 161" version="1.1" xmlns:xlink="http://www.w3.org/1999/xlink" xmlns="http://www.w3.org/2000/svg">
  <defs>
    <path d="M0 0L1440 0L1440 60.001Q1440 62.4558 1439.88 64.9077Q1439.76 67.3596 1439.52 69.8026Q1439.28 72.2456 1438.92 74.6739Q1438.56 77.1022 1438.08 79.5098Q1437.6 81.9175 1437 84.2988Q1436.41 86.68 1435.69 89.0292Q1434.98 91.3783 1434.15 93.6896Q1433.33 96.001 1432.39 98.269Q1431.45 100.537 1430.4 102.756Q1429.35 104.975 1428.19 107.14Q1427.03 109.305 1425.77 111.411Q1424.51 113.516 1423.15 115.557Q1421.78 117.599 1420.32 119.57Q1418.86 121.542 1417.3 123.44Q1415.74 125.337 1414.1 127.156Q1412.45 128.975 1410.71 130.711Q1408.98 132.447 1407.16 134.095Q1405.34 135.744 1403.44 137.301Q1401.54 138.859 1399.57 140.321Q1397.6 141.783 1395.56 143.147Q1393.52 144.511 1391.41 145.773Q1389.31 147.035 1387.14 148.192Q1384.98 149.349 1382.76 150.399Q1380.54 151.449 1378.27 152.388Q1376 153.327 1373.69 154.154Q1371.38 154.981 1369.03 155.694Q1366.68 156.407 1364.3 157.003Q1361.92 157.6 1359.51 158.079Q1357.1 158.557 1354.67 158.918Q1352.25 159.278 1349.8 159.518Q1347.36 159.759 1344.91 159.88Q1342.46 160 1340 160L0 160L0 0Z" transform="matrix(-1 0 0 1 1440 0.45601285)" id="path_1" />
    <clipPath id="mask_1">
      <use xlink:href="#path_1" />
    </clipPath>
  </defs>
  <g id="Triangle" transform="translate(0 -0.4560547)">
    <path d="M0 0L1440 0L1440 60.001Q1440 62.4558 1439.88 64.9077Q1439.76 67.3596 1439.52 69.8026Q1439.28 72.2456 1438.92 74.6739Q1438.56 77.1022 1438.08 79.5098Q1437.6 81.9175 1437 84.2988Q1436.41 86.68 1435.69 89.0292Q1434.98 91.3783 1434.15 93.6896Q1433.33 96.001 1432.39 98.269Q1431.45 100.537 1430.4 102.756Q1429.35 104.975 1428.19 107.14Q1427.03 109.305 1425.77 111.411Q1424.51 113.516 1423.15 115.557Q1421.78 117.599 1420.32 119.57Q1418.86 121.542 1417.3 123.44Q1415.74 125.337 1414.1 127.156Q1412.45 128.975 1410.71 130.711Q1408.98 132.447 1407.16 134.095Q1405.34 135.744 1403.44 137.301Q1401.54 138.859 1399.57 140.321Q1397.6 141.783 1395.56 143.147Q1393.52 144.511 1391.41 145.773Q1389.31 147.035 1387.14 148.192Q1384.98 149.349 1382.76 150.399Q1380.54 151.449 1378.27 152.388Q1376 153.327 1373.69 154.154Q1371.38 154.981 1369.03 155.694Q1366.68 156.407 1364.3 157.003Q1361.92 157.6 1359.51 158.079Q1357.1 158.557 1354.67 158.918Q1352.25 159.278 1349.8 159.518Q1347.36 159.759 1344.91 159.88Q1342.46 160 1340 160L0 160L0 0Z" transform="matrix(-1 0 0 1 1440 0.45601285)" id="Mask" fill="#5964E0" fill-rule="evenodd" stroke="none" />
    <g clip-path="url(#mask_1)">
      <path d="M293.219 63.3927L480.559 395.875Q481.214 397.038 481.793 398.242Q482.371 399.446 482.87 400.684Q483.369 401.923 483.786 403.192Q484.203 404.46 484.537 405.753Q484.871 407.046 485.12 408.358Q485.369 409.67 485.532 410.996Q485.695 412.321 485.771 413.655Q485.848 414.988 485.837 416.323Q485.827 417.659 485.729 418.991Q485.632 420.323 485.448 421.645Q485.264 422.968 484.995 424.276Q484.725 425.584 484.371 426.872Q484.017 428.159 483.58 429.421Q483.143 430.683 482.624 431.914Q482.106 433.144 481.509 434.339Q480.911 435.533 480.238 436.686Q479.564 437.839 478.817 438.946Q478.069 440.053 477.251 441.109Q476.434 442.164 475.549 443.165Q474.664 444.165 473.716 445.105Q472.768 446.046 471.761 446.923Q470.754 447.8 469.691 448.609Q468.629 449.419 467.517 450.157Q466.404 450.896 465.246 451.561Q464.088 452.225 462.888 452.813Q461.689 453.401 460.455 453.91Q459.22 454.418 457.955 454.846Q456.689 455.273 455.399 455.617Q454.108 455.961 452.798 456.22Q451.488 456.479 450.164 456.653Q448.84 456.826 447.507 456.913Q446.175 457 444.839 457L70.1605 457Q68.8251 457 67.4925 456.913Q66.1599 456.826 64.8357 456.653Q63.5116 456.479 62.2016 456.22Q60.8915 455.961 59.6011 455.617Q58.3107 455.273 57.0455 454.846Q55.7802 454.418 54.5454 453.91Q53.3106 453.401 52.1115 452.813Q50.9124 452.225 49.7542 451.561Q48.5959 450.896 47.4833 450.157Q46.3708 449.419 45.3086 448.609Q44.2465 447.8 43.2393 446.923Q42.2321 446.046 41.2841 445.105Q40.336 444.165 39.4513 443.165Q38.5665 442.164 37.7487 441.108Q36.9308 440.053 36.1835 438.946Q35.4361 437.839 34.7623 436.686Q34.0885 435.533 33.4912 434.339Q32.8939 433.144 32.3756 431.914Q31.8573 430.683 31.4201 429.421Q30.983 428.159 30.6289 426.872Q30.2748 425.584 30.0053 424.276Q29.7358 422.968 29.5519 421.645Q29.3681 420.323 29.2707 418.991Q29.1733 417.659 29.1628 416.323Q29.1523 414.988 29.2287 413.655Q29.3052 412.321 29.4682 410.996Q29.6312 409.671 29.8802 408.358Q30.1291 407.046 30.4629 405.753Q30.7967 404.46 31.2139 403.192Q31.6311 401.923 32.1301 400.684Q32.629 399.446 33.2074 398.242Q33.7859 397.038 34.4414 395.875L221.781 63.3927Q222.446 62.2117 223.188 61.0772Q223.93 59.9427 224.746 58.8597Q225.561 57.7767 226.446 56.7499Q227.331 55.7231 228.282 54.7571Q229.233 53.791 230.246 52.8899Q231.259 51.9887 232.329 51.1565Q233.399 50.3242 234.522 49.5644Q235.644 48.8046 236.815 48.1207Q237.985 47.4367 239.198 46.8316Q240.411 46.2265 241.662 45.7028Q242.912 45.1791 244.194 44.7391Q245.476 44.2992 246.785 43.9449Q248.093 43.5906 249.422 43.3235Q250.752 43.0564 252.095 42.8777Q253.439 42.699 254.792 42.6095Q256.144 42.5199 257.5 42.5199Q258.856 42.5199 260.208 42.6095Q261.561 42.699 262.905 42.8777Q264.248 43.0564 265.578 43.3235Q266.907 43.5906 268.215 43.9449Q269.524 44.2992 270.806 44.7391Q272.088 45.1791 273.338 45.7028Q274.589 46.2265 275.802 46.8316Q277.015 47.4367 278.185 48.1207Q279.356 48.8046 280.478 49.5644Q281.601 50.3242 282.671 51.1565Q283.741 51.9887 284.754 52.8899Q285.767 53.791 286.718 54.7571Q287.669 55.7231 288.554 56.7499Q289.439 57.7767 290.254 58.8597Q291.07 59.9427 291.812 61.0772Q292.554 62.2117 293.219 63.3927L293.219 63.3927Z" transform="matrix(0.9781476 0.2079117 -0.2079117 0.9781476 960.1348 -313.08798)" id="Triangle" fill="#FFFFFF" fill-opacity="0.08138021" fill-rule="evenodd" stroke="none" />
      <path d="M293.219 63.3927L480.559 395.875Q481.214 397.038 481.793 398.242Q482.371 399.446 482.87 400.684Q483.369 401.923 483.786 403.192Q484.203 404.46 484.537 405.753Q484.871 407.046 485.12 408.358Q485.369 409.67 485.532 410.996Q485.695 412.321 485.771 413.655Q485.848 414.988 485.837 416.323Q485.827 417.659 485.729 418.991Q485.632 420.323 485.448 421.645Q485.264 422.968 484.995 424.276Q484.725 425.584 484.371 426.872Q484.017 428.159 483.58 429.421Q483.143 430.683 482.624 431.914Q482.106 433.144 481.509 434.339Q480.911 435.533 480.238 436.686Q479.564 437.839 478.817 438.946Q478.069 440.053 477.251 441.109Q476.434 442.164 475.549 443.165Q474.664 444.165 473.716 445.105Q472.768 446.046 471.761 446.923Q470.754 447.8 469.691 448.609Q468.629 449.419 467.517 450.157Q466.404 450.896 465.246 451.561Q464.088 452.225 462.888 452.813Q461.689 453.401 460.455 453.91Q459.22 454.418 457.955 454.846Q456.689 455.273 455.399 455.617Q454.108 455.961 452.798 456.22Q451.488 456.479 450.164 456.653Q448.84 456.826 447.507 456.913Q446.175 457 444.839 457L70.1605 457Q68.8251 457 67.4925 456.913Q66.1599 456.826 64.8357 456.653Q63.5116 456.479 62.2016 456.22Q60.8915 455.961 59.6011 455.617Q58.3107 455.273 57.0455 454.846Q55.7802 454.418 54.5454 453.91Q53.3106 453.401 52.1115 452.813Q50.9124 452.225 49.7542 451.561Q48.5959 450.896 47.4833 450.157Q46.3708 449.419 45.3086 448.609Q44.2465 447.8 43.2393 446.923Q42.2321 446.046 41.2841 445.105Q40.336 444.165 39.4513 443.165Q38.5665 442.164 37.7487 441.108Q36.9308 440.053 36.1835 438.946Q35.4361 437.839 34.7623 436.686Q34.0885 435.533 33.4912 434.339Q32.8939 433.144 32.3756 431.914Q31.8573 430.683 31.4201 429.421Q30.983 428.159 30.6289 426.872Q30.2748 425.584 30.0053 424.276Q29.7358 422.968 29.5519 421.645Q29.3681 420.323 29.2707 418.991Q29.1733 417.659 29.1628 416.323Q29.1523 414.988 29.2287 413.655Q29.3052 412.321 29.4682 410.996Q29.6312 409.671 29.8802 408.358Q30.1291 407.046 30.4629 405.753Q30.7967 404.46 31.2139 403.192Q31.6311 401.923 32.1301 400.684Q32.629 399.446 33.2074 398.242Q33.7859 397.038 34.4414 395.875L221.781 63.3927Q222.446 62.2117 223.188 61.0772Q223.93 59.9427 224.746 58.8597Q225.561 57.7767 226.446 56.7499Q227.331 55.7231 228.282 54.7571Q229.233 53.791 230.246 52.8899Q231.259 51.9887 232.329 51.1565Q233.399 50.3242 234.522 49.5644Q235.644 48.8046 236.815 48.1207Q237.985 47.4367 239.198 46.8316Q240.411 46.2265 241.662 45.7028Q242.912 45.1791 244.194 44.7391Q245.476 44.2992 246.785 43.9449Q248.093 43.5906 249.422 43.3235Q250.752 43.0564 252.095 42.8777Q253.439 42.699 254.792 42.6095Q256.144 42.5199 257.5 42.5199Q258.856 42.5199 260.208 42.6095Q261.561 42.699 262.905 42.8777Q264.248 43.0564 265.578 43.3235Q266.907 43.5906 268.215 43.9449Q269.524 44.2992 270.806 44.7391Q272.088 45.1791 273.338 45.7028Q274.589 46.2265 275.802 46.8316Q277.015 47.4367 278.185 48.1207Q279.356 48.8046 280.478 49.5644Q281.601 50.3242 282.671 51.1565Q283.741 51.9887 284.754 52.8899Q285.767 53.791 286.718 54.7571Q287.669 55.7231 288.554 56.7499Q289.439 57.7767 290.254 58.8597Q291.07 59.9427 291.812 61.0772Q292.554 62.2117 293.219 63.3927L293.219 63.3927Z" transform="matrix(0.81915206 -0.57357645 0.57357645 0.81915206 36.50612 -247.52429)" id="Triangle-Copy" fill="#FFFFFF" fill-opacity="0.08138021" fill-rule="evenodd" stroke="none" />
      <path d="M293.219 63.3927L480.559 395.875Q481.214 397.038 481.793 398.242Q482.371 399.446 482.87 400.684Q483.369 401.923 483.786 403.192Q484.203 404.46 484.537 405.753Q484.871 407.046 485.12 408.358Q485.369 409.67 485.532 410.996Q485.695 412.321 485.771 413.655Q485.848 414.988 485.837 416.323Q485.827 417.659 485.729 418.991Q485.632 420.323 485.448 421.645Q485.264 422.968 484.995 424.276Q484.725 425.584 484.371 426.872Q484.017 428.159 483.58 429.421Q483.143 430.683 482.624 431.914Q482.106 433.144 481.509 434.339Q480.911 435.533 480.238 436.686Q479.564 437.839 478.817 438.946Q478.069 440.053 477.251 441.109Q476.434 442.164 475.549 443.165Q474.664 444.165 473.716 445.105Q472.768 446.046 471.761 446.923Q470.754 447.8 469.691 448.609Q468.629 449.419 467.517 450.157Q466.404 450.896 465.246 451.561Q464.088 452.225 462.888 452.813Q461.689 453.401 460.455 453.91Q459.22 454.418 457.955 454.846Q456.689 455.273 455.399 455.617Q454.108 455.961 452.798 456.22Q451.488 456.479 450.164 456.653Q448.84 456.826 447.507 456.913Q446.175 457 444.839 457L70.1605 457Q68.8251 457 67.4925 456.913Q66.1599 456.826 64.8357 456.653Q63.5116 456.479 62.2016 456.22Q60.8915 455.961 59.6011 455.617Q58.3107 455.273 57.0455 454.846Q55.7802 454.418 54.5454 453.91Q53.3106 453.401 52.1115 452.813Q50.9124 452.225 49.7542 451.561Q48.5959 450.896 47.4833 450.157Q46.3708 449.419 45.3086 448.609Q44.2465 447.8 43.2393 446.923Q42.2321 446.046 41.2841 445.105Q40.336 444.165 39.4513 443.165Q38.5665 442.164 37.7487 441.108Q36.9308 440.053 36.1835 438.946Q35.4361 437.839 34.7623 436.686Q34.0885 435.533 33.4912 434.339Q32.8939 433.144 32.3756 431.914Q31.8573 430.683 31.4201 429.421Q30.983 428.159 30.6289 426.872Q30.2748 425.584 30.0053 424.276Q29.7358 422.968 29.5519 421.645Q29.3681 420.323 29.2707 418.991Q29.1733 417.659 29.1628 416.323Q29.1523 414.988 29.2287 413.655Q29.3052 412.321 29.4682 410.996Q29.6312 409.671 29.8802 408.358Q30.1291 407.046 30.4629 405.753Q30.7967 404.46 31.2139 403.192Q31.6311 401.923 32.1301 400.684Q32.629 399.446 33.2074 398.242Q33.7859 397.038 34.4414 395.875L221.781 63.3927Q222.446 62.2117 223.188 61.0772Q223.93 59.9427 224.746 58.8597Q225.561 57.7767 226.446 56.7499Q227.331 55.7231 228.282 54.7571Q229.233 53.791 230.246 52.8899Q231.259 51.9887 232.329 51.1565Q233.399 50.3242 234.522 49.5644Q235.644 48.8046 236.815 48.1207Q237.985 47.4367 239.198 46.8316Q240.411 46.2265 241.662 45.7028Q242.912 45.1791 244.194 44.7391Q245.476 44.2992 246.785 43.9449Q248.093 43.5906 249.422 43.3235Q250.752 43.0564 252.095 42.8777Q253.439 42.699 254.792 42.6095Q256.144 42.5199 257.5 42.5199Q258.856 42.5199 260.208 42.6095Q261.561 42.699 262.905 42.8777Q264.248 43.0564 265.578 43.3235Q266.907 43.5906 268.215 43.9449Q269.524 44.2992 270.806 44.7391Q272.088 45.1791 273.338 45.7028Q274.589 46.2265 275.802 46.8316Q277.015 47.4367 278.185 48.1207Q279.356 48.8046 280.478 49.5644Q281.601 50.3242 282.671 51.1565Q283.741 51.9887 284.754 52.8899Q285.767 53.791 286.718 54.7571Q287.669 55.7231 288.554 56.7499Q289.439 57.7767 290.254 58.8597Q291.07 59.9427 291.812 61.0772Q292.554 62.2117 293.219 63.3927L293.219 63.3927Z" transform="matrix(0.81915206 -0.57357645 0.57357645 0.81915206 -289.4939 147.4757)" id="Triangle-Copy-2" fill="#FFFFFF" fill-opacity="0.08138021" fill-rule="evenodd" stroke="none" />
    </g>
  </g>
</svg>