<svg id="svg" version="1.1" xmlns="http://www.w3.org/2000/svg" xmlns:xlink="http://www.w3.org/1999/xlink" width="400" height="394.8717948717949" viewBox="0, 0, 400,394.8717948717949"><g id="svgg"><path id="path0" d="M185.968 4.361 C 182.925 4.752,179.279 5.093,177.866 5.119 C 176.453 5.145,173.874 5.436,172.134 5.765 C 170.395 6.095,167.016 6.618,164.625 6.927 C 162.233 7.236,159.565 7.753,158.696 8.075 C 157.826 8.397,156.670 8.669,156.126 8.678 C 155.583 8.688,154.071 9.048,152.767 9.479 C 151.462 9.911,148.706 10.728,146.640 11.295 C 144.575 11.862,142.351 12.553,141.698 12.830 C 141.045 13.107,139.889 13.459,139.129 13.613 C 138.369 13.767,136.858 14.219,135.771 14.618 C 134.684 15.017,132.549 15.795,131.028 16.346 C 118.986 20.706,109.269 25.438,97.628 32.609 C 96.217 33.478,94.763 34.368,94.397 34.585 C 93.555 35.086,86.653 39.823,86.035 40.324 C 83.859 42.090,83.053 42.688,82.845 42.688 C 82.450 42.688,73.659 49.975,69.831 53.477 C 60.164 62.317,48.843 74.646,44.175 81.416 C 43.798 81.963,42.769 83.389,41.890 84.585 C 39.405 87.964,34.644 95.203,33.181 97.826 C 32.454 99.130,31.751 100.287,31.619 100.395 C 31.488 100.504,30.776 101.749,30.038 103.162 C 29.300 104.575,28.200 106.621,27.594 107.708 C 26.988 108.794,26.378 109.951,26.239 110.277 C 26.099 110.603,25.400 112.115,24.686 113.636 C 21.899 119.576,20.553 122.647,20.551 123.073 C 20.550 123.318,20.265 124.051,19.919 124.704 C 19.573 125.356,19.060 126.690,18.779 127.668 C 18.499 128.646,17.628 131.225,16.846 133.399 C 16.063 135.573,15.420 137.619,15.417 137.945 C 15.413 138.271,15.132 139.071,14.791 139.723 C 14.451 140.375,14.007 141.798,13.805 142.885 C 13.603 143.972,13.192 145.395,12.893 146.047 C 12.406 147.108,12.045 148.402,10.689 153.953 C 9.679 158.086,8.715 163.391,8.353 166.798 C 8.134 168.864,7.768 171.887,7.540 173.518 C 5.589 187.461,5.676 209.165,7.730 221.344 C 8.041 223.192,8.396 225.949,8.518 227.470 C 8.722 230.009,9.715 235.440,10.685 239.328 C 10.902 240.198,11.359 242.065,11.701 243.478 C 12.042 244.891,12.507 246.492,12.733 247.036 C 12.960 247.579,13.465 249.180,13.856 250.593 C 15.550 256.709,18.382 265.095,19.811 268.225 C 20.220 269.118,20.553 270.077,20.553 270.356 C 20.553 270.843,20.795 271.412,23.411 277.075 C 26.296 283.321,28.654 287.783,33.350 295.884 C 34.732 298.270,40.666 307.242,42.249 309.342 C 42.599 309.806,43.152 310.586,43.478 311.076 C 47.502 317.118,61.474 332.436,70.163 340.329 C 79.147 348.490,96.063 360.561,104.348 364.722 C 104.891 364.995,106.047 365.627,106.917 366.126 C 109.299 367.492,113.115 369.486,114.229 369.946 C 114.773 370.170,115.484 370.520,115.810 370.722 C 116.136 370.925,117.292 371.478,118.379 371.952 C 119.466 372.426,121.245 373.225,122.332 373.727 C 123.419 374.229,124.842 374.821,125.494 375.041 C 126.146 375.262,127.925 375.901,129.447 376.461 C 130.968 377.021,134.081 378.096,136.364 378.849 C 138.646 379.603,141.047 380.412,141.700 380.647 C 143.656 381.353,153.028 383.932,157.322 384.948 C 158.958 385.334,160.915 385.842,161.670 386.076 C 162.425 386.310,164.466 386.615,166.206 386.755 C 167.945 386.894,170.702 387.264,172.332 387.576 C 173.962 387.888,177.875 388.323,181.028 388.543 C 184.180 388.762,188.093 389.110,189.723 389.315 C 194.196 389.879,206.262 389.794,212.055 389.159 C 214.881 388.849,219.057 388.483,221.335 388.345 C 223.612 388.207,226.636 387.854,228.054 387.560 C 229.472 387.266,232.055 386.904,233.794 386.754 C 235.534 386.604,238.379 386.137,240.119 385.715 C 246.451 384.180,249.642 383.341,251.383 382.754 C 252.362 382.424,253.962 381.977,254.941 381.759 C 255.919 381.542,257.609 381.031,258.696 380.625 C 259.783 380.219,262.450 379.328,264.623 378.646 C 266.796 377.964,268.752 377.263,268.971 377.089 C 269.189 376.914,269.938 376.649,270.635 376.500 C 271.331 376.351,273.377 375.605,275.180 374.843 C 276.983 374.080,278.992 373.266,279.644 373.035 C 280.296 372.804,281.097 372.399,281.423 372.134 C 281.749 371.870,282.549 371.470,283.202 371.246 C 286.096 370.250,303.067 360.948,303.966 359.865 C 304.229 359.548,304.589 359.289,304.766 359.289 C 304.944 359.289,306.257 358.488,307.686 357.510 C 309.115 356.532,310.452 355.731,310.656 355.731 C 310.861 355.731,311.170 355.502,311.344 355.222 C 311.518 354.942,312.466 354.186,313.452 353.542 C 316.558 351.513,325.073 344.814,328.296 341.863 C 337.581 333.364,346.155 324.569,350.417 319.173 C 351.275 318.087,352.866 316.117,353.953 314.794 C 355.040 313.472,356.196 311.982,356.522 311.484 C 356.848 310.986,357.959 309.436,358.992 308.038 C 360.025 306.641,360.870 305.426,360.870 305.338 C 360.870 305.250,361.448 304.350,362.154 303.339 C 362.861 302.328,363.616 301.207,363.833 300.849 C 364.050 300.491,364.597 299.664,365.048 299.012 C 365.499 298.360,365.985 297.559,366.127 297.233 C 366.270 296.907,366.825 295.929,367.361 295.059 C 371.418 288.476,379.441 272.507,379.449 270.998 C 379.450 270.753,379.738 270.020,380.088 269.368 C 380.438 268.715,380.962 267.381,381.251 266.403 C 381.541 265.425,382.330 263.113,383.006 261.265 C 383.681 259.417,384.408 257.194,384.621 256.324 C 384.834 255.455,385.269 254.183,385.587 253.498 C 385.905 252.813,386.174 251.923,386.183 251.521 C 386.193 251.119,386.474 250.079,386.808 249.209 C 387.352 247.793,388.080 245.244,389.292 240.514 C 390.583 235.474,391.068 232.930,391.514 228.854 C 391.788 226.354,392.205 223.419,392.441 222.332 C 394.833 211.312,394.746 178.366,392.297 168.182 C 391.983 166.877,391.607 164.565,391.461 163.043 C 391.315 161.522,390.968 159.631,390.691 158.842 C 390.414 158.053,390.062 156.364,389.908 155.087 C 389.754 153.811,389.391 152.188,389.102 151.481 C 388.813 150.774,388.364 149.084,388.105 147.726 C 387.845 146.368,387.412 144.812,387.142 144.269 C 386.872 143.725,386.441 142.261,386.185 141.015 C 385.928 139.769,385.572 138.659,385.394 138.549 C 385.216 138.439,384.949 137.680,384.802 136.862 C 384.655 136.044,384.089 134.219,383.544 132.806 C 382.999 131.393,382.188 129.259,381.742 128.063 C 381.296 126.868,380.597 125.158,380.189 124.265 C 379.780 123.372,379.447 122.482,379.448 122.289 C 379.448 122.095,379.104 121.225,378.684 120.356 C 378.263 119.486,377.093 116.996,376.084 114.822 C 375.075 112.648,374.091 110.603,373.898 110.277 C 373.705 109.951,372.825 108.261,371.943 106.522 C 371.061 104.783,369.897 102.648,369.357 101.779 C 368.817 100.909,368.104 99.664,367.774 99.012 C 367.279 98.032,364.927 94.230,363.253 91.700 C 363.037 91.374,362.390 90.395,361.814 89.526 C 359.546 86.098,358.279 84.373,357.806 84.071 C 357.535 83.897,357.312 83.582,357.312 83.371 C 357.312 82.982,353.739 78.268,352.470 76.985 C 352.090 76.600,351.779 76.146,351.779 75.977 C 351.779 75.808,351.209 75.053,350.512 74.298 C 349.815 73.543,348.170 71.680,346.856 70.159 C 345.542 68.638,343.844 66.747,343.083 65.957 C 342.322 65.167,341.148 63.921,340.474 63.189 C 336.881 59.288,327.186 50.386,323.518 47.622 C 322.431 46.802,321.275 45.884,320.949 45.582 C 320.623 45.279,319.200 44.153,317.787 43.079 C 316.374 42.005,314.748 40.769,314.175 40.333 C 309.199 36.545,295.750 28.267,290.909 26.014 C 289.931 25.558,289.071 25.032,288.999 24.846 C 288.926 24.659,288.664 24.506,288.417 24.506 C 288.018 24.506,280.580 21.021,277.805 19.534 C 277.228 19.225,276.516 18.971,276.224 18.970 C 275.931 18.969,275.158 18.687,274.506 18.345 C 273.854 18.002,272.609 17.456,271.739 17.131 C 265.747 14.889,263.612 14.130,261.992 13.664 C 260.978 13.372,259.957 13.015,259.722 12.869 C 259.287 12.601,257.938 12.205,251.581 10.481 C 243.898 8.398,240.011 7.516,235.771 6.896 C 233.814 6.610,231.591 6.200,230.830 5.985 C 230.069 5.770,227.401 5.399,224.901 5.161 C 222.401 4.923,218.221 4.471,215.613 4.155 C 208.809 3.333,193.136 3.442,185.968 4.361 M89.287 162.267 L 90.514 163.664 90.514 189.263 C 90.514 208.646,90.629 214.977,90.988 215.336 C 91.340 215.688,95.220 215.810,106.002 215.810 L 120.541 215.810 121.757 216.897 C 123.643 218.582,123.788 220.783,122.137 222.664 L 120.867 224.111 102.767 224.111 L 84.667 224.111 83.433 222.705 L 82.198 221.299 82.305 192.369 L 82.411 163.439 83.563 162.154 C 85.259 160.264,87.569 160.310,89.287 162.267 M163.918 161.606 C 164.959 162.011,166.522 162.471,167.391 162.628 C 168.261 162.784,169.239 163.143,169.565 163.425 C 169.891 163.707,170.591 164.071,171.121 164.232 C 174.093 165.141,180.515 170.797,182.476 174.234 C 183.057 175.253,183.734 176.354,183.979 176.680 C 187.954 181.966,188.703 197.897,185.329 205.413 C 184.920 206.325,184.585 207.180,184.585 207.312 C 184.585 209.100,177.260 217.530,174.445 218.983 C 173.826 219.303,173.231 219.669,173.123 219.797 C 172.639 220.367,167.637 222.492,166.219 222.730 C 165.357 222.874,164.165 223.244,163.571 223.552 C 161.741 224.498,150.380 224.334,148.166 223.329 C 147.218 222.899,145.998 222.538,145.455 222.526 C 142.948 222.472,137.383 218.920,133.399 214.831 C 117.615 198.629,125.174 166.865,145.860 162.472 C 146.844 162.263,148.267 161.824,149.022 161.496 C 151.188 160.557,161.416 160.632,163.918 161.606 M235.968 162.023 C 237.381 162.513,238.804 163.075,239.130 163.273 C 239.457 163.471,240.390 163.919,241.206 164.270 C 242.021 164.621,242.688 165.055,242.688 165.234 C 242.688 165.413,242.999 165.661,243.379 165.785 C 245.080 166.340,247.826 169.448,247.826 170.818 C 247.826 174.763,243.895 175.841,240.140 172.925 C 238.880 171.947,237.663 171.146,237.434 171.146 C 237.206 171.146,236.696 170.854,236.302 170.497 C 234.605 168.962,226.712 168.187,222.332 169.125 C 205.999 172.625,198.815 193.402,209.116 207.346 C 212.229 211.560,217.140 214.980,220.982 215.609 C 221.942 215.767,223.599 216.114,224.664 216.382 C 225.808 216.669,227.183 216.748,228.024 216.575 C 228.806 216.414,230.514 216.077,231.818 215.828 C 238.697 214.513,239.526 213.391,239.526 205.396 C 239.526 197.891,240.042 198.419,232.705 198.419 L 226.833 198.419 225.669 197.145 C 224.258 195.599,224.194 194.268,225.458 192.688 L 226.406 191.502 235.243 191.377 C 248.502 191.189,247.823 190.468,247.823 204.743 C 247.823 214.013,247.762 214.923,247.058 216.076 C 246.209 217.469,242.626 220.275,241.101 220.742 C 240.561 220.907,239.849 221.278,239.519 221.566 C 239.190 221.854,238.121 222.269,237.144 222.488 C 236.168 222.706,234.689 223.170,233.857 223.517 C 231.326 224.575,221.207 224.154,217.587 222.841 C 214.603 221.758,209.658 219.254,208.696 218.338 C 208.370 218.028,207.391 217.098,206.522 216.270 C 204.094 213.961,201.581 211.066,201.581 210.579 C 201.581 210.338,201.340 209.860,201.046 209.517 C 195.455 203.001,194.891 186.536,199.949 177.470 C 200.616 176.275,201.342 174.892,201.563 174.398 C 202.199 172.972,209.320 166.065,210.444 165.783 C 211.004 165.642,211.462 165.388,211.462 165.217 C 211.462 165.047,212.129 164.621,212.945 164.270 C 213.760 163.919,214.694 163.473,215.020 163.277 C 219.157 160.797,230.470 160.120,235.968 162.023 M296.922 161.637 C 298.071 162.059,299.673 162.522,300.480 162.666 C 301.287 162.811,302.145 163.165,302.385 163.455 C 302.625 163.744,303.387 164.101,304.079 164.248 C 304.770 164.395,305.606 164.752,305.936 165.042 C 306.267 165.332,307.268 166.069,308.161 166.678 C 311.180 168.737,316.206 174.122,316.206 175.297 C 316.206 175.447,316.532 176.042,316.932 176.619 C 317.331 177.196,317.968 178.557,318.347 179.644 C 323.741 195.116,319.441 210.721,307.531 218.894 C 306.213 219.799,304.697 220.649,304.164 220.783 C 303.631 220.917,302.996 221.266,302.753 221.559 C 302.510 221.851,301.329 222.295,300.130 222.544 C 298.930 222.793,297.349 223.247,296.616 223.554 C 294.731 224.341,283.408 224.340,281.884 223.552 C 281.289 223.244,280.097 222.865,279.235 222.710 C 277.846 222.459,273.522 220.564,271.344 219.251 C 266.854 216.544,259.684 207.074,259.684 203.852 C 259.684 203.451,259.373 202.554,258.992 201.858 C 257.816 199.707,257.979 185.680,259.221 182.213 C 261.976 174.523,268.269 166.749,273.518 164.551 C 274.279 164.232,275.624 163.629,276.508 163.211 C 277.392 162.793,278.377 162.451,278.697 162.451 C 279.017 162.451,280.251 162.101,281.438 161.674 C 284.568 160.549,293.897 160.526,296.922 161.637 M151.383 169.060 C 149.753 169.374,147.761 169.971,146.957 170.388 C 146.153 170.805,145.301 171.146,145.063 171.146 C 143.371 171.146,135.178 179.515,135.178 181.243 C 135.178 181.366,134.778 182.301,134.289 183.322 C 132.289 187.494,133.085 200.427,135.582 204.348 C 135.790 204.674,136.307 205.581,136.732 206.363 C 137.835 208.395,143.213 213.291,144.972 213.864 C 145.781 214.128,146.553 214.513,146.687 214.720 C 148.242 217.111,162.525 216.964,165.997 214.522 C 166.535 214.143,167.209 213.834,167.495 213.834 C 169.043 213.834,174.749 208.335,176.520 205.138 C 181.547 196.061,180.447 183.354,174.037 176.437 C 171.984 174.222,168.091 171.146,167.339 171.146 C 167.002 171.146,166.273 170.791,165.721 170.356 C 165.168 169.921,164.154 169.565,163.468 169.565 C 162.783 169.565,161.197 169.298,159.945 168.972 C 157.251 168.271,155.388 168.290,151.383 169.060 M285.573 168.966 C 284.486 169.254,282.943 169.506,282.143 169.527 C 281.343 169.548,280.446 169.809,280.148 170.106 C 279.851 170.403,279.197 170.777,278.696 170.936 C 268.045 174.316,262.512 192.471,268.550 204.221 C 270.266 207.561,276.238 213.834,277.700 213.834 C 277.852 213.834,278.708 214.178,279.601 214.598 C 283.218 216.301,288.991 217.182,291.977 216.487 C 293.455 216.143,295.287 215.751,296.047 215.616 C 309.333 213.258,316.831 194.866,310.149 181.028 C 306.010 172.457,294.228 166.674,285.573 168.966 " stroke="none" fill="#cccccb" fill-rule="evenodd"></path><path id="path1" d="M0.000 197.628 L 0.000 395.257 200.000 395.257 L 400.000 395.257 400.000 197.628 L 400.000 0.000 200.000 0.000 L 0.000 0.000 0.000 197.628 M215.613 4.155 C 218.221 4.471,222.401 4.923,224.901 5.161 C 227.401 5.399,230.069 5.770,230.830 5.985 C 231.591 6.200,233.814 6.610,235.771 6.896 C 240.011 7.516,243.898 8.398,251.581 10.481 C 257.938 12.205,259.287 12.601,259.722 12.869 C 259.957 13.015,260.978 13.372,261.992 13.664 C 263.612 14.130,265.747 14.889,271.739 17.131 C 272.609 17.456,273.854 18.002,274.506 18.345 C 275.158 18.687,275.931 18.969,276.224 18.970 C 276.516 18.971,277.228 19.225,277.805 19.534 C 280.580 21.021,288.018 24.506,288.417 24.506 C 288.664 24.506,288.926 24.659,288.999 24.846 C 289.071 25.032,289.931 25.558,290.909 26.014 C 295.750 28.267,309.199 36.545,314.175 40.333 C 314.748 40.769,316.374 42.005,317.787 43.079 C 319.200 44.153,320.623 45.279,320.949 45.582 C 321.275 45.884,322.431 46.802,323.518 47.622 C 327.186 50.386,336.881 59.288,340.474 63.189 C 341.148 63.921,342.322 65.167,343.083 65.957 C 343.844 66.747,345.542 68.638,346.856 70.159 C 348.170 71.680,349.815 73.543,350.512 74.298 C 351.209 75.053,351.779 75.808,351.779 75.977 C 351.779 76.146,352.090 76.600,352.470 76.985 C 353.739 78.268,357.312 82.982,357.312 83.371 C 357.312 83.582,357.535 83.897,357.806 84.071 C 358.279 84.373,359.546 86.098,361.814 89.526 C 362.390 90.395,363.037 91.374,363.253 91.700 C 364.927 94.230,367.279 98.032,367.774 99.012 C 368.104 99.664,368.817 100.909,369.357 101.779 C 369.897 102.648,371.061 104.783,371.943 106.522 C 372.825 108.261,373.705 109.951,373.898 110.277 C 374.091 110.603,375.075 112.648,376.084 114.822 C 377.093 116.996,378.263 119.486,378.684 120.356 C 379.104 121.225,379.448 122.095,379.448 122.289 C 379.447 122.482,379.780 123.372,380.189 124.265 C 380.597 125.158,381.296 126.868,381.742 128.063 C 382.188 129.259,382.999 131.393,383.544 132.806 C 384.089 134.219,384.655 136.044,384.802 136.862 C 384.949 137.680,385.216 138.439,385.394 138.549 C 385.572 138.659,385.928 139.769,386.185 141.015 C 386.441 142.261,386.872 143.725,387.142 144.269 C 387.412 144.812,387.845 146.368,388.105 147.726 C 388.364 149.084,388.813 150.774,389.102 151.481 C 389.391 152.188,389.754 153.811,389.908 155.087 C 390.062 156.364,390.414 158.053,390.691 158.842 C 390.968 159.631,391.315 161.522,391.461 163.043 C 391.607 164.565,391.983 166.877,392.297 168.182 C 394.746 178.366,394.833 211.312,392.441 222.332 C 392.205 223.419,391.788 226.354,391.514 228.854 C 391.068 232.930,390.583 235.474,389.292 240.514 C 388.080 245.244,387.352 247.793,386.808 249.209 C 386.474 250.079,386.193 251.119,386.183 251.521 C 386.174 251.923,385.905 252.813,385.587 253.498 C 385.269 254.183,384.834 255.455,384.621 256.324 C 384.408 257.194,383.681 259.417,383.006 261.265 C 382.330 263.113,381.541 265.425,381.251 266.403 C 380.962 267.381,380.438 268.715,380.088 269.368 C 379.738 270.020,379.450 270.753,379.449 270.998 C 379.441 272.507,371.418 288.476,367.361 295.059 C 366.825 295.929,366.270 296.907,366.127 297.233 C 365.985 297.559,365.499 298.360,365.048 299.012 C 364.597 299.664,364.050 300.491,363.833 300.849 C 363.616 301.207,362.861 302.328,362.154 303.339 C 361.448 304.350,360.870 305.250,360.870 305.338 C 360.870 305.426,360.025 306.641,358.992 308.038 C 357.959 309.436,356.848 310.986,356.522 311.484 C 356.196 311.982,355.040 313.472,353.953 314.794 C 352.866 316.117,351.275 318.087,350.417 319.173 C 346.155 324.569,337.581 333.364,328.296 341.863 C 325.073 344.814,316.558 351.513,313.452 353.542 C 312.466 354.186,311.518 354.942,311.344 355.222 C 311.170 355.502,310.861 355.731,310.656 355.731 C 310.452 355.731,309.115 356.532,307.686 357.510 C 306.257 358.488,304.944 359.289,304.766 359.289 C 304.589 359.289,304.229 359.548,303.966 359.865 C 303.067 360.948,286.096 370.250,283.202 371.246 C 282.549 371.470,281.749 371.870,281.423 372.134 C 281.097 372.399,280.296 372.804,279.644 373.035 C 278.992 373.266,276.983 374.080,275.180 374.843 C 273.377 375.605,271.331 376.351,270.635 376.500 C 269.938 376.649,269.189 376.914,268.971 377.089 C 268.752 377.263,266.796 377.964,264.623 378.646 C 262.450 379.328,259.783 380.219,258.696 380.625 C 257.609 381.031,255.919 381.542,254.941 381.759 C 253.962 381.977,252.362 382.424,251.383 382.754 C 249.642 383.341,246.451 384.180,240.119 385.715 C 238.379 386.137,235.534 386.604,233.794 386.754 C 232.055 386.904,229.472 387.266,228.054 387.560 C 226.636 387.854,223.612 388.207,221.335 388.345 C 219.057 388.483,214.881 388.849,212.055 389.159 C 206.262 389.794,194.196 389.879,189.723 389.315 C 188.093 389.110,184.180 388.762,181.028 388.543 C 177.875 388.323,173.962 387.888,172.332 387.576 C 170.702 387.264,167.945 386.894,166.206 386.755 C 164.466 386.615,162.425 386.310,161.670 386.076 C 160.915 385.842,158.958 385.334,157.322 384.948 C 153.028 383.932,143.656 381.353,141.700 380.647 C 141.047 380.412,138.646 379.603,136.364 378.849 C 134.081 378.096,130.968 377.021,129.447 376.461 C 127.925 375.901,126.146 375.262,125.494 375.041 C 124.842 374.821,123.419 374.229,122.332 373.727 C 121.245 373.225,119.466 372.426,118.379 371.952 C 117.292 371.478,116.136 370.925,115.810 370.722 C 115.484 370.520,114.773 370.170,114.229 369.946 C 113.115 369.486,109.299 367.492,106.917 366.126 C 106.047 365.627,104.891 364.995,104.348 364.722 C 96.063 360.561,79.147 348.490,70.163 340.329 C 61.474 332.436,47.502 317.118,43.478 311.076 C 43.152 310.586,42.599 309.806,42.249 309.342 C 40.666 307.242,34.732 298.270,33.350 295.884 C 28.654 287.783,26.296 283.321,23.411 277.075 C 20.795 271.412,20.553 270.843,20.553 270.356 C 20.553 270.077,20.220 269.118,19.811 268.225 C 18.382 265.095,15.550 256.709,13.856 250.593 C 13.465 249.180,12.960 247.579,12.733 247.036 C 12.507 246.492,12.042 244.891,11.701 243.478 C 11.359 242.065,10.902 240.198,10.685 239.328 C 9.715 235.440,8.722 230.009,8.518 227.470 C 8.396 225.949,8.041 223.192,7.730 221.344 C 5.676 209.165,5.589 187.461,7.540 173.518 C 7.768 171.887,8.134 168.864,8.353 166.798 C 8.715 163.391,9.679 158.086,10.689 153.953 C 12.045 148.402,12.406 147.108,12.893 146.047 C 13.192 145.395,13.603 143.972,13.805 142.885 C 14.007 141.798,14.451 140.375,14.791 139.723 C 15.132 139.071,15.413 138.271,15.417 137.945 C 15.420 137.619,16.063 135.573,16.846 133.399 C 17.628 131.225,18.499 128.646,18.779 127.668 C 19.060 126.690,19.573 125.356,19.919 124.704 C 20.265 124.051,20.550 123.318,20.551 123.073 C 20.553 122.647,21.899 119.576,24.686 113.636 C 25.400 112.115,26.099 110.603,26.239 110.277 C 26.378 109.951,26.988 108.794,27.594 107.708 C 28.200 106.621,29.300 104.575,30.038 103.162 C 30.776 101.749,31.488 100.504,31.619 100.395 C 31.751 100.287,32.454 99.130,33.181 97.826 C 34.644 95.203,39.405 87.964,41.890 84.585 C 42.769 83.389,43.798 81.963,44.175 81.416 C 48.843 74.646,60.164 62.317,69.831 53.477 C 73.659 49.975,82.450 42.688,82.845 42.688 C 83.053 42.688,83.859 42.090,86.035 40.324 C 86.653 39.823,93.555 35.086,94.397 34.585 C 94.763 34.368,96.217 33.478,97.628 32.609 C 109.269 25.438,118.986 20.706,131.028 16.346 C 132.549 15.795,134.684 15.017,135.771 14.618 C 136.858 14.219,138.369 13.767,139.129 13.613 C 139.889 13.459,141.045 13.107,141.698 12.830 C 142.351 12.553,144.575 11.862,146.640 11.295 C 148.706 10.728,151.462 9.911,152.767 9.479 C 154.071 9.048,155.583 8.688,156.126 8.678 C 156.670 8.669,157.826 8.397,158.696 8.075 C 159.565 7.753,162.233 7.236,164.625 6.927 C 167.016 6.618,170.395 6.095,172.134 5.765 C 173.874 5.436,176.453 5.145,177.866 5.119 C 179.279 5.093,182.925 4.752,185.968 4.361 C 193.136 3.442,208.809 3.333,215.613 4.155 " stroke="none" fill="#fbfbfb" fill-rule="evenodd"></path><path id="path2" d="M83.563 162.154 L 82.411 163.439 82.305 192.369 L 82.198 221.299 83.433 222.705 L 84.667 224.111 102.767 224.111 L 120.867 224.111 122.137 222.664 C 123.788 220.783,123.643 218.582,121.757 216.897 L 120.541 215.810 106.002 215.810 C 95.220 215.810,91.340 215.688,90.988 215.336 C 90.629 214.977,90.514 208.646,90.514 189.263 L 90.514 163.664 89.287 162.267 C 87.569 160.310,85.259 160.264,83.563 162.154 M149.022 161.496 C 148.267 161.824,146.844 162.263,145.860 162.472 C 125.174 166.865,117.615 198.629,133.399 214.831 C 137.383 218.920,142.948 222.472,145.455 222.526 C 145.998 222.538,147.218 222.899,148.166 223.329 C 150.380 224.334,161.741 224.498,163.571 223.552 C 164.165 223.244,165.357 222.874,166.219 222.730 C 167.637 222.492,172.639 220.367,173.123 219.797 C 173.231 219.669,173.826 219.303,174.445 218.983 C 177.260 217.530,184.585 209.100,184.585 207.312 C 184.585 207.180,184.920 206.325,185.329 205.413 C 188.703 197.897,187.954 181.966,183.979 176.680 C 183.734 176.354,183.057 175.253,182.476 174.234 C 180.515 170.797,174.093 165.141,171.121 164.232 C 170.591 164.071,169.891 163.707,169.565 163.425 C 169.239 163.143,168.261 162.784,167.391 162.628 C 166.522 162.471,164.959 162.011,163.918 161.606 C 161.416 160.632,151.188 160.557,149.022 161.496 M218.577 161.928 C 216.947 162.475,215.346 163.082,215.020 163.277 C 214.694 163.473,213.760 163.919,212.945 164.270 C 212.129 164.621,211.462 165.047,211.462 165.217 C 211.462 165.388,211.004 165.642,210.444 165.783 C 209.320 166.065,202.199 172.972,201.563 174.398 C 201.342 174.892,200.616 176.275,199.949 177.470 C 194.891 186.536,195.455 203.001,201.046 209.517 C 201.340 209.860,201.581 210.338,201.581 210.579 C 201.581 211.066,204.094 213.961,206.522 216.270 C 207.391 217.098,208.370 218.028,208.696 218.338 C 209.658 219.254,214.603 221.758,217.587 222.841 C 221.207 224.154,231.326 224.575,233.857 223.517 C 234.689 223.170,236.168 222.706,237.144 222.488 C 238.121 222.269,239.190 221.854,239.519 221.566 C 239.849 221.278,240.561 220.907,241.101 220.742 C 242.626 220.275,246.209 217.469,247.058 216.076 C 247.762 214.923,247.823 214.013,247.823 204.743 C 247.823 190.468,248.502 191.189,235.243 191.377 L 226.406 191.502 225.458 192.688 C 224.194 194.268,224.258 195.599,225.669 197.145 L 226.833 198.419 232.705 198.419 C 240.042 198.419,239.526 197.891,239.526 205.396 C 239.526 213.391,238.697 214.513,231.818 215.828 C 230.514 216.077,228.806 216.414,228.024 216.575 C 227.183 216.748,225.808 216.669,224.664 216.382 C 223.599 216.114,221.942 215.767,220.982 215.609 C 217.140 214.980,212.229 211.560,209.116 207.346 C 198.815 193.402,205.999 172.625,222.332 169.125 C 226.712 168.187,234.605 168.962,236.302 170.497 C 236.696 170.854,237.206 171.146,237.434 171.146 C 237.663 171.146,238.880 171.947,240.140 172.925 C 243.895 175.841,247.826 174.763,247.826 170.818 C 247.826 169.448,245.080 166.340,243.379 165.785 C 242.999 165.661,242.688 165.413,242.688 165.234 C 242.688 165.055,242.021 164.621,241.206 164.270 C 240.390 163.919,239.457 163.471,239.130 163.273 C 235.132 160.847,223.980 160.118,218.577 161.928 M281.438 161.674 C 280.251 162.101,279.017 162.451,278.697 162.451 C 278.377 162.451,277.392 162.793,276.508 163.211 C 275.624 163.629,274.279 164.232,273.518 164.551 C 268.269 166.749,261.976 174.523,259.221 182.213 C 257.979 185.680,257.816 199.707,258.992 201.858 C 259.373 202.554,259.684 203.451,259.684 203.852 C 259.684 207.074,266.854 216.544,271.344 219.251 C 273.522 220.564,277.846 222.459,279.235 222.710 C 280.097 222.865,281.289 223.244,281.884 223.552 C 283.408 224.340,294.731 224.341,296.616 223.554 C 297.349 223.247,298.930 222.793,300.130 222.544 C 301.329 222.295,302.510 221.851,302.753 221.559 C 302.996 221.266,303.631 220.917,304.164 220.783 C 308.656 219.655,315.704 212.017,318.419 205.336 C 320.593 199.984,321.200 188.972,319.618 183.597 C 318.557 179.993,317.667 177.680,316.932 176.619 C 316.532 176.042,316.206 175.447,316.206 175.297 C 316.206 174.122,311.180 168.737,308.161 166.678 C 307.268 166.069,306.267 165.332,305.936 165.042 C 305.606 164.752,304.770 164.395,304.079 164.248 C 303.387 164.101,302.625 163.744,302.385 163.455 C 302.145 163.165,301.287 162.811,300.480 162.666 C 299.673 162.522,298.071 162.059,296.922 161.637 C 293.897 160.526,284.568 160.549,281.438 161.674 M159.945 168.972 C 161.197 169.298,162.783 169.565,163.468 169.565 C 164.154 169.565,165.168 169.921,165.721 170.356 C 166.273 170.791,167.002 171.146,167.339 171.146 C 168.091 171.146,171.984 174.222,174.037 176.437 C 180.447 183.354,181.547 196.061,176.520 205.138 C 174.749 208.335,169.043 213.834,167.495 213.834 C 167.209 213.834,166.535 214.143,165.997 214.522 C 162.525 216.964,148.242 217.111,146.687 214.720 C 146.553 214.513,145.781 214.128,144.972 213.864 C 143.213 213.291,137.835 208.395,136.732 206.363 C 136.307 205.581,135.790 204.674,135.582 204.348 C 133.085 200.427,132.289 187.494,134.289 183.322 C 134.778 182.301,135.178 181.366,135.178 181.243 C 135.178 179.515,143.371 171.146,145.063 171.146 C 145.301 171.146,146.153 170.805,146.957 170.388 C 150.166 168.724,156.388 168.046,159.945 168.972 M294.862 169.278 C 309.938 172.368,317.226 189.558,309.818 204.556 C 307.316 209.623,300.934 214.749,296.047 215.616 C 295.287 215.751,293.455 216.143,291.977 216.487 C 288.991 217.182,283.218 216.301,279.601 214.598 C 278.708 214.178,277.852 213.834,277.700 213.834 C 276.238 213.834,270.266 207.561,268.550 204.221 C 262.512 192.471,268.045 174.316,278.696 170.936 C 279.197 170.777,279.851 170.403,280.148 170.106 C 280.446 169.809,281.343 169.548,282.143 169.527 C 282.943 169.506,284.486 169.254,285.573 168.966 C 287.910 168.347,290.791 168.444,294.862 169.278 " stroke="none" fill="#66686d" fill-rule="evenodd"></path></g></svg>