<svg width="24" height="24" viewBox="0 0 24 24" fill="none" xmlns="http://www.w3.org/2000/svg">
<g id="location_city_24px">
<path id="icon/social/location_city_24px" fill-rule="evenodd" clip-rule="evenodd" d="M15 5.5V11.5H21V21.5H3V7.5H9V5.5L12 2.5L15 5.5ZM5 19.5H7V17.5H5V19.5ZM7 15.5H5V13.5H7V15.5ZM5 11.5H7V9.5H5V11.5ZM11 19.5V17.5H13V19.5H11ZM11 13.5V15.5H13V13.5H11ZM11 11.5V9.5H13V11.5H11ZM11 5.5V7.5H13V5.5H11ZM19 19.5H17V17.5H19V19.5ZM17 15.5H19V13.5H17V15.5Z" fill="black" fill-opacity="0.54"/>
</g>
</svg>
