<?xml version="1.0" encoding="utf-8"?>
<svg width="768px" height="160px" viewbox="0 0 768 160" version="1.1" xmlns:xlink="http://www.w3.org/1999/xlink" xmlns="http://www.w3.org/2000/svg">
  <defs>
    <path d="M0 0L768 0L768 60.001Q768 62.4558 767.88 64.9077Q767.759 67.3596 767.518 69.8026Q767.278 72.2456 766.917 74.6739Q766.557 77.1022 766.078 79.5098Q765.599 81.9175 765.003 84.2988Q764.406 86.68 763.694 89.0292Q762.981 91.3783 762.154 93.6896Q761.327 96.001 760.388 98.269Q759.449 100.537 758.399 102.756Q757.349 104.975 756.192 107.14Q755.035 109.305 753.773 111.411Q752.511 113.516 751.147 115.557Q749.783 117.599 748.321 119.57Q746.858 121.542 745.301 123.44Q743.744 125.337 742.095 127.156Q740.447 128.975 738.711 130.711Q736.975 132.447 735.156 134.095Q733.337 135.744 731.44 137.301Q729.542 138.859 727.57 140.321Q725.599 141.783 723.557 143.147Q721.516 144.511 719.411 145.773Q717.305 147.035 715.14 148.192Q712.975 149.349 710.756 150.399Q708.537 151.449 706.269 152.388Q704.001 153.327 701.69 154.154Q699.378 154.981 697.029 155.694Q694.68 156.407 692.299 157.003Q689.917 157.6 687.51 158.079Q685.102 158.557 682.674 158.918Q680.246 159.278 677.803 159.518Q675.36 159.759 672.908 159.88Q670.456 160 668.001 160C460.016 160 0 160 0 160C0 160 0 152.32 0 112.32C0 72.3197 0 0 0 0Z" transform="matrix(-1 0 0 1 768 0)" id="path_1" />
    <clipPath id="mask_1">
      <use xlink:href="#path_1" />
    </clipPath>
  </defs>
  <g id="Triangle">
    <path d="M0 0L768 0L768 60.001Q768 62.4558 767.88 64.9077Q767.759 67.3596 767.518 69.8026Q767.278 72.2456 766.917 74.6739Q766.557 77.1022 766.078 79.5098Q765.599 81.9175 765.003 84.2988Q764.406 86.68 763.694 89.0292Q762.981 91.3783 762.154 93.6896Q761.327 96.001 760.388 98.269Q759.449 100.537 758.399 102.756Q757.349 104.975 756.192 107.14Q755.035 109.305 753.773 111.411Q752.511 113.516 751.147 115.557Q749.783 117.599 748.321 119.57Q746.858 121.542 745.301 123.44Q743.744 125.337 742.095 127.156Q740.447 128.975 738.711 130.711Q736.975 132.447 735.156 134.095Q733.337 135.744 731.44 137.301Q729.542 138.859 727.57 140.321Q725.599 141.783 723.557 143.147Q721.516 144.511 719.411 145.773Q717.305 147.035 715.14 148.192Q712.975 149.349 710.756 150.399Q708.537 151.449 706.269 152.388Q704.001 153.327 701.69 154.154Q699.378 154.981 697.029 155.694Q694.68 156.407 692.299 157.003Q689.917 157.6 687.51 158.079Q685.102 158.557 682.674 158.918Q680.246 159.278 677.803 159.518Q675.36 159.759 672.908 159.88Q670.456 160 668.001 160C460.016 160 0 160 0 160C0 160 0 152.32 0 112.32C0 72.3197 0 0 0 0Z" transform="matrix(-1 0 0 1 768 0)" id="Mask" fill="#5964E0" fill-rule="evenodd" stroke="none" />
    <g clip-path="url(#mask_1)">
      <g id="Group-19" transform="translate(-290 -544)">
        <g id="Group-10">
          <path d="M293.219 63.3927L480.559 395.875Q481.214 397.038 481.793 398.242Q482.371 399.446 482.87 400.684Q483.369 401.923 483.786 403.192Q484.203 404.46 484.537 405.753Q484.871 407.046 485.12 408.358Q485.369 409.67 485.532 410.996Q485.695 412.321 485.771 413.655Q485.848 414.988 485.837 416.323Q485.827 417.659 485.729 418.991Q485.632 420.323 485.448 421.645Q485.264 422.968 484.995 424.276Q484.725 425.584 484.371 426.872Q484.017 428.159 483.58 429.421Q483.143 430.683 482.624 431.914Q482.106 433.144 481.509 434.339Q480.911 435.533 480.238 436.686Q479.564 437.839 478.817 438.946Q478.069 440.053 477.251 441.109Q476.434 442.164 475.549 443.165Q474.664 444.165 473.716 445.105Q472.768 446.046 471.761 446.923Q470.754 447.8 469.691 448.609Q468.629 449.419 467.517 450.157Q466.404 450.896 465.246 451.561Q464.088 452.225 462.888 452.813Q461.689 453.401 460.455 453.91Q459.22 454.418 457.955 454.846Q456.689 455.273 455.399 455.617Q454.108 455.961 452.798 456.22Q451.488 456.479 450.164 456.653Q448.84 456.826 447.507 456.913Q446.175 457 444.839 457L70.1605 457Q68.8251 457 67.4925 456.913Q66.1599 456.826 64.8357 456.653Q63.5116 456.479 62.2016 456.22Q60.8915 455.961 59.6011 455.617Q58.3107 455.273 57.0455 454.846Q55.7802 454.418 54.5454 453.91Q53.3106 453.401 52.1115 452.813Q50.9124 452.225 49.7542 451.561Q48.5959 450.896 47.4833 450.157Q46.3708 449.419 45.3086 448.609Q44.2465 447.8 43.2393 446.923Q42.2321 446.046 41.2841 445.105Q40.336 444.165 39.4513 443.165Q38.5665 442.164 37.7487 441.108Q36.9308 440.053 36.1835 438.946Q35.4361 437.839 34.7623 436.686Q34.0885 435.533 33.4912 434.339Q32.8939 433.144 32.3756 431.914Q31.8573 430.683 31.4201 429.421Q30.983 428.159 30.6289 426.872Q30.2748 425.584 30.0053 424.276Q29.7358 422.968 29.5519 421.645Q29.3681 420.323 29.2707 418.991Q29.1733 417.659 29.1628 416.323Q29.1523 414.988 29.2287 413.655Q29.3052 412.321 29.4682 410.996Q29.6312 409.671 29.8802 408.358Q30.1291 407.046 30.4629 405.753Q30.7967 404.46 31.2139 403.192Q31.6311 401.923 32.1301 400.684Q32.629 399.446 33.2074 398.242Q33.7859 397.038 34.4414 395.875L221.781 63.3927Q222.446 62.2117 223.188 61.0772Q223.93 59.9427 224.746 58.8597Q225.561 57.7767 226.446 56.7499Q227.331 55.7231 228.282 54.7571Q229.233 53.791 230.246 52.8899Q231.259 51.9887 232.329 51.1565Q233.399 50.3242 234.522 49.5644Q235.644 48.8046 236.815 48.1207Q237.985 47.4367 239.198 46.8316Q240.411 46.2265 241.662 45.7028Q242.912 45.1791 244.194 44.7391Q245.476 44.2992 246.785 43.9449Q248.093 43.5906 249.422 43.3235Q250.752 43.0564 252.095 42.8777Q253.439 42.699 254.792 42.6095Q256.144 42.5199 257.5 42.5199Q258.856 42.5199 260.208 42.6095Q261.561 42.699 262.905 42.8777Q264.248 43.0564 265.578 43.3235Q266.907 43.5906 268.215 43.9449Q269.524 44.2992 270.806 44.7391Q272.088 45.1791 273.338 45.7028Q274.589 46.2265 275.802 46.8316Q277.015 47.4367 278.185 48.1207Q279.356 48.8046 280.478 49.5644Q281.601 50.3242 282.671 51.1565Q283.741 51.9887 284.754 52.8899Q285.767 53.791 286.718 54.7571Q287.669 55.7231 288.554 56.7499Q289.439 57.7767 290.254 58.8597Q291.07 59.9427 291.812 61.0772Q292.554 62.2117 293.219 63.3927L293.219 63.3927Z" transform="matrix(0.81915206 -0.57357645 0.57357645 0.81915206 326.5061 296.01968)" id="Triangle-Copy" fill="#FFFFFF" fill-opacity="0.08138021" fill-rule="evenodd" stroke="none" />
          <path d="M293.219 63.3927L480.559 395.875Q481.214 397.038 481.793 398.242Q482.371 399.446 482.87 400.684Q483.369 401.923 483.786 403.192Q484.203 404.46 484.537 405.753Q484.871 407.046 485.12 408.358Q485.369 409.67 485.532 410.996Q485.695 412.321 485.771 413.655Q485.848 414.988 485.837 416.323Q485.827 417.659 485.729 418.991Q485.632 420.323 485.448 421.645Q485.264 422.968 484.995 424.276Q484.725 425.584 484.371 426.872Q484.017 428.159 483.58 429.421Q483.143 430.683 482.624 431.914Q482.106 433.144 481.509 434.339Q480.911 435.533 480.238 436.686Q479.564 437.839 478.817 438.946Q478.069 440.053 477.251 441.109Q476.434 442.164 475.549 443.165Q474.664 444.165 473.716 445.105Q472.768 446.046 471.761 446.923Q470.754 447.8 469.691 448.609Q468.629 449.419 467.517 450.157Q466.404 450.896 465.246 451.561Q464.088 452.225 462.888 452.813Q461.689 453.401 460.455 453.91Q459.22 454.418 457.955 454.846Q456.689 455.273 455.399 455.617Q454.108 455.961 452.798 456.22Q451.488 456.479 450.164 456.653Q448.84 456.826 447.507 456.913Q446.175 457 444.839 457L70.1605 457Q68.8251 457 67.4925 456.913Q66.1599 456.826 64.8357 456.653Q63.5116 456.479 62.2016 456.22Q60.8915 455.961 59.6011 455.617Q58.3107 455.273 57.0455 454.846Q55.7802 454.418 54.5454 453.91Q53.3106 453.401 52.1115 452.813Q50.9124 452.225 49.7542 451.561Q48.5959 450.896 47.4833 450.157Q46.3708 449.419 45.3086 448.609Q44.2465 447.8 43.2393 446.923Q42.2321 446.046 41.2841 445.105Q40.336 444.165 39.4513 443.165Q38.5665 442.164 37.7487 441.108Q36.9308 440.053 36.1835 438.946Q35.4361 437.839 34.7623 436.686Q34.0885 435.533 33.4912 434.339Q32.8939 433.144 32.3756 431.914Q31.8573 430.683 31.4201 429.421Q30.983 428.159 30.6289 426.872Q30.2748 425.584 30.0053 424.276Q29.7358 422.968 29.5519 421.645Q29.3681 420.323 29.2707 418.991Q29.1733 417.659 29.1628 416.323Q29.1523 414.988 29.2287 413.655Q29.3052 412.321 29.4682 410.996Q29.6312 409.671 29.8802 408.358Q30.1291 407.046 30.4629 405.753Q30.7967 404.46 31.2139 403.192Q31.6311 401.923 32.1301 400.684Q32.629 399.446 33.2074 398.242Q33.7859 397.038 34.4414 395.875L221.781 63.3927Q222.446 62.2117 223.188 61.0772Q223.93 59.9427 224.746 58.8597Q225.561 57.7767 226.446 56.7499Q227.331 55.7231 228.282 54.7571Q229.233 53.791 230.246 52.8899Q231.259 51.9887 232.329 51.1565Q233.399 50.3242 234.522 49.5644Q235.644 48.8046 236.815 48.1207Q237.985 47.4367 239.198 46.8316Q240.411 46.2265 241.662 45.7028Q242.912 45.1791 244.194 44.7391Q245.476 44.2992 246.785 43.9449Q248.093 43.5906 249.422 43.3235Q250.752 43.0564 252.095 42.8777Q253.439 42.699 254.792 42.6095Q256.144 42.5199 257.5 42.5199Q258.856 42.5199 260.208 42.6095Q261.561 42.699 262.905 42.8777Q264.248 43.0564 265.578 43.3235Q266.907 43.5906 268.215 43.9449Q269.524 44.2992 270.806 44.7391Q272.088 45.1791 273.338 45.7028Q274.589 46.2265 275.802 46.8316Q277.015 47.4367 278.185 48.1207Q279.356 48.8046 280.478 49.5644Q281.601 50.3242 282.671 51.1565Q283.741 51.9887 284.754 52.8899Q285.767 53.791 286.718 54.7571Q287.669 55.7231 288.554 56.7499Q289.439 57.7767 290.254 58.8597Q291.07 59.9427 291.812 61.0772Q292.554 62.2117 293.219 63.3927L293.219 63.3927Z" transform="matrix(0.81915206 -0.57357645 0.57357645 0.81915206 0.5061188 691.01965)" id="Triangle-Copy-2" fill="#FFFFFF" fill-opacity="0.08138021" fill-rule="evenodd" stroke="none" />
        </g>
      </g>
    </g>
  </g>
</svg>